<?xml version="1.0" encoding="UTF-8" standalone="no"?>
<!-- Created with Inkscape (http://www.inkscape.org/) -->

<svg
   xmlns:dc="http://purl.org/dc/elements/1.1/"
   xmlns:cc="http://creativecommons.org/ns#"
   xmlns:rdf="http://www.w3.org/1999/02/22-rdf-syntax-ns#"
   xmlns:svg="http://www.w3.org/2000/svg"
   xmlns="http://www.w3.org/2000/svg"
   version="1.1"
   width="744.09448"
   height="1052.3622"
   id="svg3511">
  <defs
     id="defs3513" />
  <metadata
     id="metadata3516">
    <rdf:RDF>
      <cc:Work
         rdf:about="">
        <dc:format>image/svg+xml</dc:format>
        <dc:type
           rdf:resource="http://purl.org/dc/dcmitype/StillImage" />
        <dc:title></dc:title>
      </cc:Work>
    </rdf:RDF>
  </metadata>
  <g
     transform="translate(-102.47587,-98.534486)"
     id="layer1">
    <path
       d="m -4555.7144,-1328.3521 a 100.7143,100.7143 0 1 1 -201.4286,0 100.7143,100.7143 0 1 1 201.4286,0 z"
       transform="matrix(0.74050296,0.6720531,-0.6720531,0.74050296,2660.0597,4216.6962)"
       id="path4055-3"
       style="fill:#917c6f;fill-opacity:1;stroke:none" />
    <path
       d="m 166.39623,52.949315 c 3.3302,-6.5422 1.5418,-15.163599 -5.391,-21.962199 -9.342,-9.16109 -24.4448,-11.52789 -33.74523,-5.29849 -7.3015,4.89049 -8.8722,13.60629 -4.6803,21.570389 -1.8248,-6.423099 0.2465,-12.951699 6.1665,-16.916899 8.91133,-5.96879 23.16483,-3.89559 31.85003,4.6213 5.5672,5.4594 7.4835,12.245899 5.8,17.985899 z"
       id="path4059-5"
       style="fill:#6c5d53;fill-opacity:1;stroke:none" />
    <path
       d="m 158.24243,182.89168 c 3.4171,-6.6352 -1.6863,-14.8411 -14.2992,-20.8309 -16.99573,-8.0713 -41.11953,-9.0509 -53.904929,-2.199 -10.0373,5.3792 -10.1326,13.9692 -1.4682,21.3281 -4.5681,-6.0705 -3.1051,-12.5828 5.0329,-16.9443 12.250599,-6.5655 34.974699,-5.7964 50.775229,1.7073 10.1283,4.8098 14.9366,11.2249 13.8642,16.9388 z"
       id="path4059-4-6"
       style="fill:#6c5d53;fill-opacity:1;stroke:none" />
    <path
       d="m 68.625703,69.901915 c 0.7322,-6.8511 -2.6407,-13.3308 -9.1785,-16.1616 -8.8096,-3.8145 -19.9962,0.4363 -24.9973,9.4893 -3.9265,7.1072 -2.8892,15.0519 2.0101,19.9893 -2.8587,-4.6241 -3.0072,-10.9444 0.1761,-16.7069 4.7921,-8.6742 15.3102,-12.8203 23.5004,-9.2741 5.2499,2.2731 8.2621,7.1639 8.4892,12.664 z"
       id="path4059-3-4"
       style="fill:#6c5d53;fill-opacity:1;stroke:none" />
    <path
       d="m 205.14333,100.49431 c -14.5818,47.55237 -70.1082,82.93747 -136.375027,82.93747 -10.0379,0 -19.8415,-0.8004 -29.2813,-2.3437 17.5421,14.8362 40.226098,23.7812 64.999997,23.7812 55.62303,0 100.71873,-45.0958 100.71873,-100.71877 0,-1.225 -0.019,-2.4417 -0.062,-3.6562 z"
       id="path4055"
       style="opacity:0.25;fill:#000000;fill-opacity:1;stroke:none" />
  </g>
</svg>
