<?xml version="1.0" encoding="UTF-8" standalone="no"?>
<!-- Created with Inkscape (http://www.inkscape.org/) -->

<svg
   xmlns:dc="http://purl.org/dc/elements/1.1/"
   xmlns:cc="http://creativecommons.org/ns#"
   xmlns:rdf="http://www.w3.org/1999/02/22-rdf-syntax-ns#"
   xmlns:svg="http://www.w3.org/2000/svg"
   xmlns="http://www.w3.org/2000/svg"
   xmlns:sodipodi="http://sodipodi.sourceforge.net/DTD/sodipodi-0.dtd"
   xmlns:inkscape="http://www.inkscape.org/namespaces/inkscape"
   version="1.1"
   width="744.09448"
   height="1052.3622"
   id="svg3358"
   inkscape:version="0.48.4 r9939"
   sodipodi:docname="terre.svg">
  <sodipodi:namedview
     pagecolor="#ffffff"
     bordercolor="#666666"
     borderopacity="1"
     objecttolerance="10"
     gridtolerance="10"
     guidetolerance="10"
     inkscape:pageopacity="0"
     inkscape:pageshadow="2"
     inkscape:window-width="1870"
     inkscape:window-height="1030"
     id="namedview10"
     showgrid="false"
     inkscape:zoom="1.7940591"
     inkscape:cx="98.454054"
     inkscape:cy="912.18114"
     inkscape:window-x="50"
     inkscape:window-y="0"
     inkscape:window-maximized="1"
     inkscape:current-layer="svg3358" />
  <defs
     id="defs3360" />
  <metadata
     id="metadata3363">
    <rdf:RDF>
      <cc:Work
         rdf:about="">
        <dc:format>image/svg+xml</dc:format>
        <dc:type
           rdf:resource="http://purl.org/dc/dcmitype/StillImage" />
        <dc:title />
      </cc:Work>
    </rdf:RDF>
  </metadata>
  <g
     id="layer1"
     transform="translate(-153.28368,-149.38193)">
    <path
       d="m 153.17592,3.3110762 c -39.2074,0 -74.908596,14.4880458 -101.718696,38.1965318 -3.8776,9.558654 -7.5497,19.09754 -8.4063,21.971965 l -1.6875,5.681902 3.9688,0.361221 c 3.9697,0.363953 4,0.386549 4,1.904897 0,1.410518 0.1312,1.510781 1.9062,1.510781 1.555,0 2.2705,-0.356492 3.75,-1.970584 1.8221,-1.987714 1.8117,-2.009574 2.375,-8.900416 0.7415,-9.070045 0.9796,-10.345617 1.7812,-10.345617 0.3703,0 1.1553,1.426598 1.7813,3.18583 0.8523,2.395073 1.3567,3.135697 1.9687,2.955875 3.4622,-1.017557 4.995,-0.879984 7.3126,0.591175 1.2905,0.819237 2.3437,1.634586 2.3437,1.806316 0,0.17173 -1.6755,1.990237 -3.7187,4.072539 -3.6514,3.721093 -3.7652,3.951888 -7.1876,12.546049 -1.9151,4.809485 -3.6307,8.57556 -3.8124,8.375033 -0.1818,-0.200526 -0.9796,-2.23049 -1.75,-4.532342 l -1.375,-4.203912 -1.1563,2.725922 c -0.6953,1.65592 -1.6057,2.922349 -2.3125,3.21862 -0.9763,0.409355 -1.646,2.097016 -4.1875,10.444093 l -3.0313,9.951505 -7.4687,7.15979 c -4.0974,3.93412 -7.4375,7.31238 -7.4375,7.521 0,0.20862 2.8389,1.77773 6.3125,3.48137 5.3316,2.61494 6.2832,3.23827 6.0313,4.07254 -0.1642,0.54356 -2.4393,6.48779 -5.0313,13.17012 l -4.6875,12.11903 5.125,5.02503 5.125,4.99215 3.2812,-1.01819 c 1.8104,-0.55113 4.27,-1.25234 5.4688,-1.57646 2.5388,-0.6865 2.7613,-1.01346 5.6875,-8.34213 2.4926,-6.2425 2.7067,-4.8139 -1.7813,-12.41468 l -2.4374,-4.10533 0.6562,-4.10543 c 0.71,-4.36177 1.1325,-4.99982 5,-7.81665 l 1.9688,-1.4451 7.1562,1.11667 c 3.9373,0.60473 7.3695,1.08387 7.625,1.08387 0.2555,0 0.4688,1.43406 0.4688,3.18573 0,1.75177 0.1255,3.18582 0.2812,3.18582 0.1558,0 2.1313,-1.67778 4.4062,-3.7441 3.7446,-3.40139 4.1641,-3.98836 4.4063,-6.04313 l 0.2813,-2.26622 -7.5626,-0.32843 c -4.1498,-0.18876 -9.9884,-0.36122 -13,-0.36122 -3.0116,0 -5.4757,-0.1752 -5.4687,-0.39412 0.01,-0.21902 1.4274,-2.00905 3.1563,-4.00685 l 3.1562,-3.64563 10.3438,0.85391 10.3437,0.82113 4.6875,-1.93779 c 2.5706,-1.06926 4.6613,-2.21325 4.6562,-2.52886 0,-0.31572 -0.3476,-1.99245 -0.75,-3.74411 -1.1823,-5.146539 -1.5821,-4.69052 6.562596,-7.521119 l 7.3437,-2.528863 4.5313,4.729401 4.5312,4.762191 9,-3.842585 c 4.95,-2.107737 9.2074,-3.812948 9.4688,-3.809795 0.2614,0 1.9178,3.935807 3.6874,8.73626 l 3.2188,8.70336 2.8438,0.59117 c 5.5733,1.12402 7.1576,1.64615 30.3124,10.01719 l 23.4376,8.47351 11.1562,-3.74411 c 6.1438,-2.04899 11.3806,-3.89882 11.625,-4.13823 0.4009,-0.39285 3.8028,-14.28237 3.8438,-15.69898 0.015,-0.5319 -13.2026,-6.603614 -14.375,-6.601512 -0.2705,4.2e-4 -1.8679,1.453502 -3.5626,3.218622 l -3.0937,3.21862 -9.2813,-1.64215 c -5.1105,-0.90489 -9.3892,-1.75556 -9.5,-1.872 -0.3005,-0.31582 -1.2698,-9.244199 -1.0312,-9.491704 0.113,-0.117184 5.09,-0.39149 11.0625,-0.591175 l 10.8437,-0.361222 19.5626,3.21862 19.5624,3.21862 12.4063,-3.185829 12.4063,-3.21862 10.9687,0.85392 10.875,0.853919 C 269.77142,40.416377 215.96642,3.3110762 153.17592,3.3110762 z M 26.894624,90.903581 c -0.5893,0.101944 -1.1103,0.251709 -1.1874,0.32843 -0.077,0.07672 0.4436,3.751151 1.1874,8.145076 l 1.375,7.980823 3.6876,-2.92298 c 2.0416,-1.61504 3.7187,-3.18195 3.7187,-3.44858 0,-0.26653 -1.7245,-2.662865 -3.8437,-5.353369 -2.9835,-3.787724 -4.108,-4.872333 -4.9376,-4.7294 z m -0.094,11.659239 c -0.065,0.0368 -0.1186,0.37225 -0.125,0.9196 -0.01,0.87589 0.1116,1.27904 0.25,0.91961 0.1383,-0.35933 0.128,-1.06002 0,-1.57647 -0.048,-0.19369 -0.086,-0.28492 -0.125,-0.26274 z m 113.031296,9.72154 -25.3126,10.01719 -25.343696,10.01708 -10.2187,10.21425 c -5.614,5.61957 -12.4218,12.51661 -15.1563,15.30485 l -4.9687,5.05783 1.5624,18.85192 c 0.873,10.37021 1.6917,19.3855 1.8126,20.00137 0.133,0.67725 4.6975,4.90796 11.5312,10.70684 l 11.2812,9.59017 21.343796,-2.95587 c 11.728,-1.61 21.3684,-2.82556 21.4375,-2.72593 0.069,0.0999 6.3303,10.3762 13.9063,22.85877 9.7401,16.04833 14.1058,22.78825 14.875,22.99015 0.5983,0.15701 11.8674,2.8988 25.0624,6.07591 13.1951,3.17721 24.1055,5.73308 24.25,5.6819 0.2265,-0.0799 22.308,-12.06943 22.5626,-12.25051 0.2625,-0.18666 4.2187,-15.85978 4.2187,-16.71707 0,-0.55082 -3.6457,-8.73058 -8.0937,-18.19505 l -8.0938,-17.20977 -2.7812,-18.42501 c -1.5246,-10.11797 -2.75,-18.84403 -2.75,-19.41019 0,-0.56616 2.5866,-6.7023 5.7812,-13.62992 3.1946,-6.92762 5.8125,-12.86859 5.8125,-13.2029 0,-0.38592 -3.1461,-1.03763 -8.6563,-1.80632 l -8.6874,-1.21525 -32.6876,-14.81216 -32.6874,-14.81228 z m 97.5312,76.55722 c -0.1149,0.0525 -0.1853,0.21272 -0.25,0.42691 -0.5752,1.90195 -2.9375,19.23626 -2.9375,21.54504 l 0,2.03627 8.2187,4.59803 c 4.5142,2.53948 8.25,4.61947 8.3126,4.63093 0.062,0.0116 0,-0.60947 -0.125,-1.41231 -0.1232,-0.80284 -0.3575,-4.73287 -0.5313,-8.70336 l -0.3125,-7.19268 -6.125,-8.40782 c -4.4927,-6.15201 -5.7521,-7.74823 -6.25,-7.52101 z"
       id="path3030-8-4"
       style="fill:#8dd35f;fill-opacity:1;stroke:none"
       inkscape:connector-curvature="0" />
    <path
       d="M 146.14002,294.68304 C 115.17002,293.32466 84.687324,282.30095 60.345524,263.65639 21.996124,234.28271 0.9034237,189.70044 3.1610237,142.78931 4.7251237,110.28688 17.084424,80.113085 39.098724,55.051465 c 4.3073,-4.903652 10.3786,-10.909371 10.6937,-10.578313 0.1084,0.114031 -0.8536,2.878534 -2.1379,6.143502 -3.5182,8.944137 -6.3087,17.068407 -6.3088,18.368151 -10e-5,0.260853 1.2541,0.523913 3.3004,0.692069 3.9289,0.323071 4.5567,0.607571 4.5567,2.065487 0,1.299114 0.8551,1.706683 2.7989,1.334006 1.5609,-0.299213 4.1626,-2.790766 4.6903,-4.491879 0.1956,-0.630587 0.6686,-4.355778 1.0511,-8.278133 0.953,-9.772623 1.0066,-9.863953 3.0539,-5.20686 l 1.24,2.82072 2.828,-0.259276 c 2.7284,-0.250133 2.905,-0.216082 5.0115,0.963851 1.2009,0.672731 2.1834,1.378883 2.1834,1.569321 0,0.190437 -1.5456,2.043836 -3.4347,4.118572 -3.7103,4.074852 -3.6705,4.002229 -8.3604,15.268817 -1.4164,3.402752 -2.339,5.200344 -2.5043,4.879586 -0.1439,-0.279245 -0.8587,-2.196859 -1.5884,-4.261295 -0.7297,-2.064331 -1.3744,-3.806537 -1.4328,-3.871277 -0.058,-0.06516 -0.5009,0.788548 -0.9836,1.896384 -0.4826,1.107941 -1.602,2.871902 -2.4877,3.919833 -1.5007,1.775942 -1.8107,2.546834 -4.558,11.334271 -2.7214,8.704518 -3.0474,9.519448 -4.2454,10.610778 -3.398,3.09545 -13.619,13.18946 -13.619,13.44979 0,0.16185 2.6117,1.63952 5.8037,3.28378 3.1921,1.64436 6.0029,3.24195 6.2464,3.5502 0.3641,0.46107 -0.4118,2.77753 -4.3752,13.06271 -2.6497,6.87624 -4.8177,12.65672 -4.8177,12.84548 0,0.18886 1.4051,1.72612 3.1225,3.41629 1.7174,1.69019 4.0096,3.94727 5.0938,5.0158 l 1.9713,1.94283 5.239,-1.59412 c 2.8814,-0.87673 5.519,-1.83543 5.8614,-2.13044 0.6502,-0.56027 2.9124,-5.4348 4.5938,-9.89841 1.2261,-3.25499 1.1773,-3.44521 -2.4532,-9.58156 l -2.7599,-4.66466 0.7196,-3.75251 c 0.3957,-2.06391 1.0252,-4.1829 1.399,-4.70902 0.3737,-0.52612 1.7319,-1.76144 3.0181,-2.74526 l 2.3385,-1.78865 7.2165,1.07893 c 4.8338,0.72276 7.3198,1.25066 7.5297,1.59885 0.1722,0.28587 0.3181,1.53327 0.3242,2.77196 0.01,1.23868 0.1355,2.45823 0.2879,2.71026 0.3464,0.5731 7.4206,-5.57176 8.3595,-7.26131 0.3498,-0.62943 0.7354,-1.907 0.857,-2.83912 0.2143,-1.64362 0.1894,-1.70132 -0.826,-1.91477 -0.5758,-0.12107 -6.0989,-0.33915 -12.2734,-0.48461 -6.1746,-0.14556 -11.522,-0.37646 -11.8832,-0.51309 -0.5569,-0.21061 -0.1925,-0.79643 2.3974,-3.85362 2.9825,-3.52067 3.0858,-3.60128 4.4067,-3.43848 0.7439,0.0914 5.3705,0.49028 10.2812,0.88566 l 8.9286,0.71887 3.2143,-1.34347 c 4.1281,-1.72549 5.8844,-2.66297 6.1012,-3.25687 0.096,-0.26159 -0.1572,-1.96649 -0.5614,-3.78867 -0.4043,-1.822193 -0.6449,-3.612009 -0.5346,-3.977118 0.1103,-0.365215 0.8775,-0.997799 1.7048,-1.405788 1.6192,-0.798428 11.478596,-4.20696 12.168996,-4.20696 0.2298,0 2.3414,2.026811 4.6924,4.504176 2.351,2.47726 4.4634,4.50418 4.6942,4.50418 0.2308,0 4.2892,-1.604637 9.0187,-3.565867 4.7294,-1.961125 8.8126,-3.565758 9.0738,-3.565758 0.5954,0 1.7657,2.596757 4.8138,10.681405 l 2.3997,6.36483 3.5713,0.74693 c 3.1051,0.6494 12.3256,3.81705 47.3523,16.26798 l 5.9238,2.10574 10.1476,-3.42366 c 13.7473,-4.63807 12.554,-3.99246 13.4793,-7.29305 1.1193,-3.99256 2.9183,-11.80448 2.9183,-12.67196 0,-0.57268 -0.7784,-1.13663 -3.3426,-2.42145 -4.013,-2.01074 -7.3393,-3.47412 -9.5047,-4.181533 -1.9206,-0.627435 -1.9226,-0.626278 -5.7669,3.147363 l -2.7213,2.67138 -6.2072,-1.12213 c -9.7754,-1.76722 -12.0433,-2.2926 -12.2418,-2.83606 -0.2751,-0.75356 -1.0811,-8.378509 -0.9043,-8.554758 0.084,-0.08408 4.9746,-0.356596 10.8674,-0.605994 l 10.7143,-0.453496 19.6429,3.249728 19.6428,3.249729 12.4549,-3.210317 12.455,-3.210212 10.7291,0.831218 10.7291,0.831219 1.1815,2.687455 c 4.3441,9.881508 7.9765,23.899768 9.6684,37.312038 0.8889,7.04701 0.8809,25.84479 -0.014,32.65534 -2.1736,16.54386 -6.0134,29.64893 -12.9774,44.29115 -11.1431,23.42924 -27.8675,42.88999 -49.7624,57.90468 -20.1783,13.83749 -43.5145,22.61537 -68.0357,25.59174 -4.1592,0.50478 -6.6048,0.66379 -16.7857,1.09144 -1.5715,0.0662 -5.7622,-0.0105 -9.3128,-0.16312 z m 71.243,-26.72258 11.216,-6.09157 0.9526,-3.37816 c 0.524,-1.85803 1.4862,-5.63345 2.1382,-8.38985 l 1.1856,-5.0118 -0.8192,-2.11993 c -0.4505,-1.16585 -4.1023,-9.21392 -8.1151,-17.88449 l -7.296,-15.76467 -1.7408,-11.6358 c -0.9575,-6.39972 -2.1971,-14.84506 -2.7548,-18.76752 l -1.014,-7.13162 1.129,-2.81515 c 0.6209,-1.5483 2.4549,-5.77092 4.0757,-9.38366 4.6555,-10.37766 6.4872,-14.7079 6.3031,-14.90128 -0.3251,-0.34167 -3.0853,-0.86474 -10.2997,-1.95187 l -7.248,-1.09218 -32.3656,-14.67438 c -17.801,-8.07088 -32.6204,-14.67428 -32.9318,-14.67428 -0.3114,0 -11.8251,4.45509 -25.5859,9.90031 -24.440396,9.6711 -25.062896,9.94215 -26.889596,11.70727 -2.8881,2.79066 -17.7081,17.70929 -23.3878,23.54336 -4.9295,5.06341 -5.0892,5.27644 -5.0879,6.78196 0,1.57143 2.64,32.61805 3.0669,36.08649 0.1867,1.51645 0.4897,2.13664 1.5788,3.23102 1.7925,1.80106 8.4754,7.69505 15.6211,13.77716 l 5.804,4.93991 8.0395,-1.12507 c 8.522196,-1.19265 33.791396,-4.49534 34.393896,-4.49534 0.1962,0 3.0512,4.43376 6.3445,9.85291 14.4507,23.77901 21.5893,35.06304 22.595,35.71633 0.59,0.38319 47.915,11.75214 49.1621,11.81016 0.3928,0.0179 5.7614,-2.70795 11.9302,-6.05826 z m 33.4514,-46.91082 c -0.1026,-0.67095 -0.3721,-4.67927 -0.5989,-8.90746 l -0.4125,-7.68748 -4.7946,-6.49294 c -8.1038,-10.97453 -7.7479,-10.739 -8.6458,-5.72016 -0.7122,3.98089 -2.1565,15.6025 -2.257,18.161 l -0.1014,2.58404 8.2143,4.62798 c 4.5178,2.54537 8.3421,4.63397 8.4983,4.64144 0.1562,0.0105 0.2001,-0.53548 0.098,-1.20642 l 0,0 z M 31.368224,105.14255 c 1.5606,-1.24856 3.2286,-2.71352 3.7067,-3.25541 l 0.8693,-0.98518 -1.0849,-1.587723 c -0.5967,-0.873148 -2.3593,-3.124238 -3.9169,-5.00223 -2.5504,-3.075056 -2.9554,-3.414732 -4.0716,-3.414732 -1.5381,0 -1.5309,-0.398531 -0.1506,8.322272 1.1305,7.142133 1.3402,8.193113 1.6349,8.193113 0.097,0 1.4524,-1.02155 3.0131,-2.27011 z m -4.3138,-1.5772 c 0,-0.82944 -0.104,-1.05645 -0.3133,-0.7092 -0.2808,0.46589 -0.1429,1.92907 0.1819,1.92907 0.075,0 0.1344,-0.54893 0.1314,-1.21987 z"
       id="path3175"
       style="fill:#5f8dd3;fill-opacity:1;stroke:none"
       inkscape:connector-curvature="0" />
    <path
       d="m 11.689724,105.53067 c -4.3833003,13.6521 -6.7500003,28.14393 -6.7500003,43.18868 0,80.43228 67.4815003,145.65891 150.7186963,145.65891 26.5134,0 51.4185,-6.6447 73.0625,-18.26074 C 134.14202,259.37828 58.017624,209.32346 11.689724,105.53067 z"
       id="path2985-0-8-2"
       style="opacity:0.15;fill:#000000;fill-opacity:1;stroke:none"
       inkscape:connector-curvature="0" />
    <path
       d="m 268.16492,135.84477 c -25.6158,-2.70039 -59.3451,-21.41893 -83.6554,-46.425696 -29.511,-30.356341 -35.2701,-59.996872 -15.3352,-78.924984 5.3741,-5.1027081 6.1464,-5.3796408 12.3,-4.4097983 46.099,7.2654103 90.4705,41.8819013 109.6727,85.5613843 5.4319,12.355934 11.189,33.001554 10.0627,36.086174 -2.1165,5.79677 -18.0075,9.69821 -33.0448,8.11292 z"
       id="path4031"
       style="opacity:0.1;fill:#ffffff;fill-opacity:1;stroke:none"
       inkscape:connector-curvature="0" />
  </g>
</svg>
