<?xml version="1.0" encoding="UTF-8" standalone="no"?>
<!-- Created with Inkscape (http://www.inkscape.org/) -->

<svg
   xmlns:dc="http://purl.org/dc/elements/1.1/"
   xmlns:cc="http://creativecommons.org/ns#"
   xmlns:rdf="http://www.w3.org/1999/02/22-rdf-syntax-ns#"
   xmlns:svg="http://www.w3.org/2000/svg"
   xmlns="http://www.w3.org/2000/svg"
   xmlns:sodipodi="http://sodipodi.sourceforge.net/DTD/sodipodi-0.dtd"
   xmlns:inkscape="http://www.inkscape.org/namespaces/inkscape"
   width="744.09448819"
   height="1052.3622047"
   id="svg2"
   version="1.1"
   inkscape:version="0.48.4 r9939"
   sodipodi:docname="New document 1">
  <defs
     id="defs4" />
  <sodipodi:namedview
     id="base"
     pagecolor="#ffffff"
     bordercolor="#666666"
     borderopacity="1.0"
     inkscape:pageopacity="0.0"
     inkscape:pageshadow="2"
     inkscape:zoom="1.979899"
     inkscape:cx="380.81143"
     inkscape:cy="954.2862"
     inkscape:document-units="px"
     inkscape:current-layer="layer1"
     showgrid="false"
     inkscape:window-width="1870"
     inkscape:window-height="1030"
     inkscape:window-x="50"
     inkscape:window-y="0"
     inkscape:window-maximized="1" />
  <metadata
     id="metadata7">
    <rdf:RDF>
      <cc:Work
         rdf:about="">
        <dc:format>image/svg+xml</dc:format>
        <dc:type
           rdf:resource="http://purl.org/dc/dcmitype/StillImage" />
        <dc:title></dc:title>
      </cc:Work>
    </rdf:RDF>
  </metadata>
  <g
     inkscape:label="Layer 1"
     inkscape:groupmode="layer"
     id="layer1">
    <path
       sodipodi:type="arc"
       style="fill:#de8787;fill-opacity:1;stroke:none"
       id="path2985"
       sodipodi:cx="331.42856"
       sodipodi:cy="523.79077"
       sodipodi:rx="251.42857"
       sodipodi:ry="77.14286"
       d="m 582.85713,523.79077 a 251.42857,77.14286 0 1 1 -502.857145,0 251.42857,77.14286 0 1 1 502.857145,0 z"
       transform="matrix(0.81534091,0,0,0.56481483,-64.217123,-216.2172)" />
    <path
       style="fill:#d7e3f4;fill-opacity:1;stroke:none"
       d="m 210.01015,0.48862891 c -37.2725,0 -67.75784,23.60925009 -70.0625,53.43750009 10e-4,0.01 -0.002,0.0213 0,0.0312 -0.002,0.0208 0.002,0.0417 0,0.0625 l 0.0312,0 c 2.36352,15.03728 32.79941,26.9375 70.03125,26.9375 37.23167,0 67.6675,-11.90032 70.03125,-26.9375 0.003,-0.0221 0.0279,-0.0403 0.0312,-0.0625 -8e-4,-0.0104 8e-4,-0.0209 0,-0.0312 -2.30465,-29.82825 -32.79,-53.43750009 -70.0625,-53.43750009 z"
       id="path2987"
       inkscape:connector-curvature="0" />
    <path
       style="fill:#c83737;fill-opacity:1;stroke:none"
       d="m 405.88676,89.123129 c -46.19738,16.546511 -119.8694,27.249991 -202.875,27.249991 -78.67315,0 -148.711217,-10.42967 -195.1696345,-25.522311 C 31.665583,109.30619 110.86661,123.68562 205.26176,123.68562 c 98.70722,0 181.12072,-14.8153 200.625,-34.562491 z"
       id="path2985-5"
       inkscape:connector-curvature="0"
       sodipodi:nodetypes="cscsc" />
    <path
       style="fill:#87aade;fill-opacity:1;stroke:none"
       d="m 265.99343,23.344909 c 20.35798,42.73719 -46.84369,45.68877 -55.84185,45.68877 -10.13895,0 -81.37496,-5.47353 -57.09078,-44.8346 -9.34663,10.62165 -13.54087,23.53952 -13.24123,29.84364 0.001,0.01 -0.002,0.0213 0,0.0312 -0.002,0.0208 0.002,0.0417 0,0.0625 l 0.0312,0 c 2.36352,15.03728 32.79941,26.9375 70.03125,26.9375 37.23167,0 67.6675,-11.90032 70.03125,-26.9375 0.003,-0.0221 0.028,-0.0403 0.0312,-0.0625 -8e-4,-0.0104 8e-4,-0.021 0,-0.0312 -0.55935,-7.23943 -2.25181,-13.20938 -5.82528,-19.46753 -1.69037,-3.80932 -4.63721,-7.58435 -8.12576,-11.23028 z"
       id="path2987-3"
       inkscape:connector-curvature="0"
       sodipodi:nodetypes="cscccccsccccc" />
  </g>
</svg>
